<svg width="44" height="42" viewBox="0 0 44 42" fill="none" xmlns="http://www.w3.org/2000/svg">
<ellipse cx="21.9741" cy="21" rx="21.544" ry="21" fill="#6E46E6"/>
<rect width="24.8471" height="24.2197" transform="translate(9.55054 8.89014)" fill="#6E46E6"/>
<path d="M12.4347 20.7891C12.4624 19.6079 12.712 18.4617 13.1806 17.3832C13.6604 16.2749 14.3481 15.2829 15.2244 14.426C16.1007 13.5692 17.1212 12.8988 18.2582 12.4312C19.434 11.9473 20.6819 11.7013 21.9714 11.7013C23.2609 11.7013 24.5088 11.9473 25.6818 12.4312C26.8156 12.8978 27.8451 13.5754 28.7129 14.426C28.9874 14.6936 29.2453 14.9775 29.4838 15.2748L27.8144 16.5453C27.7813 16.5702 27.7562 16.6037 27.7418 16.6419C27.7274 16.6801 27.7244 16.7215 27.7331 16.7613C27.7418 16.8011 27.7619 16.8377 27.7909 16.8669C27.82 16.8961 27.857 16.9167 27.8976 16.9264L32.7699 18.0887C32.9086 18.1212 33.0445 18.0184 33.0445 17.8806L33.0667 12.9907C33.0667 12.8096 32.8531 12.7069 32.7089 12.8204L31.1449 14.0125C29.0124 11.3526 25.6957 9.64697 21.9686 9.64697C15.6154 9.64697 10.4463 14.6098 10.3271 20.7783C10.3264 20.8071 10.3315 20.8358 10.3424 20.8627C10.3532 20.8896 10.3694 20.9141 10.3901 20.9347C10.4108 20.9554 10.4355 20.9718 10.4627 20.983C10.49 20.9942 10.5193 21 10.5489 20.9999H12.2128C12.3348 20.9999 12.4319 20.9053 12.4347 20.7891ZM33.3994 20.9999H31.7356C31.6135 20.9999 31.5165 21.0946 31.5137 21.2108C31.486 22.392 31.2364 23.5381 30.7677 24.6167C30.288 25.7249 29.6003 26.7197 28.724 27.5739C27.8395 28.4396 26.7879 29.126 25.6299 29.5937C24.4719 30.0613 23.2304 30.3009 21.977 30.2986C20.7239 30.3009 19.4829 30.0613 18.3253 29.5936C17.1678 29.126 16.1167 28.4395 15.2327 27.5739C14.9582 27.3063 14.7003 27.0224 14.4618 26.7251L16.1312 25.4546C16.1643 25.4297 16.1894 25.3962 16.2038 25.358C16.2182 25.3198 16.2212 25.2784 16.2125 25.2386C16.2038 25.1988 16.1837 25.1622 16.1547 25.133C16.1256 25.1038 16.0886 25.0831 16.048 25.0735L11.1757 23.9112C11.037 23.8787 10.9011 23.9815 10.9011 24.1193L10.8817 29.0119C10.8817 29.193 11.0952 29.2957 11.2395 29.1822L12.8035 27.9901C14.936 30.6473 18.2527 32.3529 21.9797 32.3529C28.3357 32.3529 33.502 27.3873 33.6213 21.2216C33.622 21.1928 33.6168 21.164 33.606 21.1372C33.5952 21.1103 33.579 21.0858 33.5583 21.0652C33.5376 21.0445 33.5129 21.0281 33.4856 21.0169C33.4583 21.0057 33.429 20.9999 33.3994 20.9999Z" fill="white"/>
</svg>
